<svg id="Capa_1" data-name="Capa 1" xmlns="http://www.w3.org/2000/svg" viewBox="0 0 512 512"><title>home</title><path d="M498.82,223.19,422,146.37V45a15,15,0,0,0-15-15H347a15,15,0,0,0-15,15V56.37L288.82,13.19a45,45,0,0,0-63.58,0l-212,210A45,45,0,0,0,60,297.45V497a15,15,0,0,0,15,15H437a15,15,0,0,0,15-15V297.45a45,45,0,0,0,46.82-74.26ZM362,60h30v56.36l-30-30ZM302,482H212V360h90Zm120,0H332V345a15,15,0,0,0-15-15H197a15,15,0,0,0-15,15V482H90V273.78L256.95,108.59,422,273.64Zm55.6-216.39a15,15,0,0,1-21.21,0L267.61,76.82a15,15,0,0,0-21.16-.06L55.61,265.61a15,15,0,0,1-21.26-21.16l212-210a15,15,0,0,1,21.21,0l210,210A15,15,0,0,1,477.61,265.61Z" transform="translate(0 0)" style="fill:#666"/><path d="M197,240a60,60,0,1,0,60-60A60.07,60.07,0,0,0,197,240Zm60-30a30,30,0,1,1-30,30A30,30,0,0,1,257,210Z" transform="translate(0 0)" style="fill:#666"/></svg>